<svg xmlns="http://www.w3.org/2000/svg">
  <symbol id="check-list-icon"  viewBox="0 0 16 16">
    <path d="M9.293 0H4a2 2 0 0 0-2 2v12a2 2 0 0 0 2 2h8a2 2 0 0 0 2-2V4.707A1 1 0 0 0 13.707 4L10 .293A1 1 0 0 0 9.293 0zM9.5 3.5v-2l3 3h-2a1 1 0 0 1-1-1zm1.354 4.354-3 3a.5.5 0 0 1-.708 0l-1.5-1.5a.5.5 0 1 1 .708-.708L7.5 9.793l2.646-2.647a.5.5 0 0 1 .708.708z"/>  
  </symbol>

  <symbol id="list-delete" viewBox="0 0 27.03 23.51">
    <path d="M 14.984375 2.4863281 A 1.0001 1.0001 0 0 0 14 3.5 L 14 4 L 8.5 4 A 1.0001 1.0001 0 0 0 7.4863281 5 L 6 5 A 1.0001 1.0001 0 1 0 6 7 L 24 7 A 1.0001 1.0001 0 1 0 24 5 L 22.513672 5 A 1.0001 1.0001 0 0 0 21.5 4 L 16 4 L 16 3.5 A 1.0001 1.0001 0 0 0 14.984375 2.4863281 z M 6 9 L 7.7929688 24.234375 C 7.9109687 25.241375 8.7633438 26 9.7773438 26 L 20.222656 26 C 21.236656 26 22.088031 25.241375 22.207031 24.234375 L 24 9 L 6 9 z"/>
  </symbol>

  <symbol id="add-icon" viewBox="0 0 25 19">
    <path fill-rule="evenodd" d="M 11 2 L 11 11 L 2 11 L 2 13 L 11 13 L 11 22 L 13 22 L 13 13 L 22 13 L 22 11 L 13 11 L 13 2 Z"/>
  </symbol>
</svg>
